<svg id="Layer_1" data-name="Layer 1" xmlns="http://www.w3.org/2000/svg" viewBox="0 0 66.73 51.14">
  <title>cart_icon</title>
  <path d="M126.78,17.9a3.25,3.25,0,0,0,0-.44,1.8,1.8,0,0,0,0-.19,2.47,2.47,0,0,0-.11-.36l-.09-.21-.17-.31-.06-.09a.43.43,0,0,0-.09-.1,1.86,1.86,0,0,0-.23-.26,1.29,1.29,0,0,0-.17-.16,1.86,1.86,0,0,0-.28-.21,2.12,2.12,0,0,0-.2-.12,1.83,1.83,0,0,0-.32-.14,2.18,2.18,0,0,0-.23-.09l-.08,0-.28,0-.18,0L74,10.68l-.65-3.07a2.81,2.81,0,0,0-2.52-2.23l-7.69-.66a2.83,2.83,0,1,0-.48,5.64l5.59.48,6,28.66L70.71,52.26a2.81,2.81,0,0,0,.47,2.47,2.84,2.84,0,0,0,2.25,1.12h10.2a2.83,2.83,0,0,0,0-5.66H77.16l2.19-7.82h39a2.33,2.33,0,0,0,.53-.06l.16,0a2.07,2.07,0,0,0,.33-.1l.18-.08a1.51,1.51,0,0,0,.28-.15l.16-.1a3,3,0,0,0,.27-.23.52.52,0,0,0,.11-.1,2.71,2.71,0,0,0,.57-.84,1.15,1.15,0,0,0,.06-.17,1.84,1.84,0,0,0,.09-.25l5.59-21.61a3.13,3.13,0,0,0,.09-.59C126.79,18,126.78,18,126.78,17.9Zm-10.6,18.81H79.47L75.21,16.47l45.18,4Z" transform="translate(-60.06 -4.71)"/>
  <circle cx="54.64" cy="48.35" r="2.78"/>
</svg>
